<svg width="24" height="24" viewBox="0 0 24 24" fill="none" xmlns="http://www.w3.org/2000/svg">
<g clip-path="url(#clip0_2004_27)">
<path fill-rule="evenodd" clip-rule="evenodd" d="M12 0C18.6279 0 24 5.37212 24 12C24 18.6279 18.6279 24 12 24C5.37212 24 0 18.6279 0 12C0 5.37212 5.37212 0 12 0Z" fill="#F0B90B"/>
<path d="M6.59519 12L6.60384 15.1731L9.29999 16.7596V18.6173L5.02596 16.1106V11.0721L6.59519 12ZM6.59519 8.82693V10.676L5.02499 9.74712V7.89808L6.59519 6.96924L8.17307 7.89808L6.59519 8.82693ZM10.426 7.89808L11.9961 6.96924L13.574 7.89808L11.9961 8.82693L10.426 7.89808Z" fill="white"/>
<path d="M7.72981 14.5154V12.6577L9.3 13.5865V15.4356L7.72981 14.5154ZM10.426 17.425L11.9962 18.3539L13.574 17.425V19.274L11.9962 20.2029L10.426 19.274V17.425ZM15.826 7.89808L17.3962 6.96924L18.974 7.89808V9.74712L17.3962 10.676V8.82693L15.826 7.89808ZM17.3962 15.1731L17.4048 12L18.975 11.0712V16.1096L14.701 18.6164V16.7587L17.3962 15.1731Z" fill="white"/>
<path d="M16.2702 14.5154L14.7 15.4356V13.5866L16.2702 12.6577V14.5154Z" fill="white"/>
<path d="M16.2702 9.48438L16.2788 11.3421L13.575 12.9286V16.1094L12.0048 17.0296L10.4346 16.1094V12.9286L7.73077 11.3421V9.48438L9.3077 8.55553L11.9952 10.1498L14.699 8.55553L16.2769 9.48438H16.2702ZM7.72981 6.31226L11.9962 3.79688L16.2702 6.31226L14.7 7.24111L11.9962 5.64688L9.3 7.24111L7.72981 6.31226Z" fill="white"/>
</g>
<defs>
<clipPath id="clip0_2004_27">
<rect width="24" height="24" fill="white"/>
</clipPath>
</defs>
</svg>
