<svg width="24" height="24" viewBox="0 0 24 24" fill="none" xmlns="http://www.w3.org/2000/svg">
<g clip-path="url(#clip0_2004_87)">
<path d="M23.6398 14.9026C22.0371 21.3312 15.5259 25.2436 9.09657 23.6405C2.66982 22.0377 -1.24255 15.5262 0.360949 9.09799C1.96295 2.66861 8.47407 -1.24414 14.9016 0.35861C21.3306 1.96136 25.2426 8.47361 23.6398 14.9026Z" fill="#F7931A"/>
<path d="M17.291 10.2903C17.5299 8.69353 16.3141 7.83515 14.6517 7.26253L15.191 5.09953L13.8744 4.7714L13.3494 6.8774C13.0032 6.79115 12.6477 6.70978 12.2945 6.62915L12.8232 4.50928L11.5074 4.18115L10.9677 6.3434C10.6812 6.27815 10.4 6.21365 10.127 6.14578L10.1285 6.13903L8.31273 5.68565L7.96248 7.0919C7.96248 7.0919 8.93935 7.31578 8.91873 7.32965C9.45198 7.46278 9.54835 7.81565 9.53223 8.0954L8.91798 10.5595C8.95473 10.5689 9.00235 10.5824 9.05485 10.6034C9.01098 10.5925 8.9641 10.5805 8.91573 10.5689L8.05473 14.0208C7.98948 14.1828 7.8241 14.4258 7.45135 14.3335C7.46448 14.3527 6.49435 14.0947 6.49435 14.0947L5.84073 15.6018L7.5541 16.0289C7.87285 16.1088 8.18523 16.1924 8.49273 16.2712L7.94785 18.4589L9.26298 18.787L9.8026 16.6225C10.1619 16.72 10.5106 16.81 10.8519 16.8948L10.3141 19.0492L11.6307 19.3773L12.1756 17.1937C14.4207 17.6185 16.109 17.4472 16.8196 15.4165C17.3922 13.7815 16.7911 12.8384 15.6099 12.2234C16.4701 12.025 17.1181 11.4592 17.291 10.2903ZM14.2827 14.5087C13.8759 16.1437 11.123 15.2598 10.2305 15.0382L10.9535 12.1398C11.846 12.3625 14.708 12.8035 14.2827 14.5087ZM14.69 10.2667C14.3187 11.7539 12.0275 10.9983 11.2842 10.813L11.9397 8.18428C12.683 8.36953 15.0766 8.71528 14.69 10.2667Z" fill="white"/>
</g>
<defs>
<clipPath id="clip0_2004_87">
<rect width="24" height="24" fill="white"/>
</clipPath>
</defs>
</svg>
