<svg width="134" height="41" viewBox="0 0 134 41" fill="none" xmlns="http://www.w3.org/2000/svg">
<path d="M0.905273 40L6.02932 28.5694C6.1627 28.2719 6.43277 28.0581 6.75298 27.9965L16.9158 26.0421L24.0209 25.6474C24.2068 25.637 24.3919 25.6788 24.5553 25.7679L28.1642 27.7364C28.5536 27.9489 29.0365 27.8793 29.3501 27.5657L32.4788 24.437C32.7521 24.1637 33.1584 24.0723 33.5223 24.2023L38.5106 25.9838C38.6185 26.0224 38.7323 26.0421 38.8469 26.0421H42.7471C43.0289 26.0421 43.2975 25.9233 43.4871 25.7148L46.9972 21.8536C47.1867 21.6452 47.4554 21.5263 47.7371 21.5263H52.3955C52.5508 21.5263 52.7039 21.5625 52.8427 21.6319L60.5033 25.4622C60.7216 25.5713 60.9723 25.5969 61.2082 25.534L66.6749 24.0762C66.8858 24.0199 67.0726 23.8962 67.2066 23.7239L69.5734 20.6808C69.7629 20.4372 70.0542 20.2947 70.3628 20.2947H73.6911C74.1106 20.2947 74.4855 20.0329 74.6299 19.639L78.6648 8.63469C78.8093 8.24081 79.1842 7.97895 79.6037 7.97895H83.0641C83.2949 7.97895 83.5187 7.89908 83.6973 7.7529L87.4541 4.67923C87.7495 4.43748 88.1569 4.38506 88.5039 4.54413L97.2823 8.56755C97.5976 8.71203 97.9652 8.68289 98.2537 8.49054L101.047 6.62863C101.321 6.44597 101.667 6.40991 101.973 6.5322L105.303 7.86423C105.49 7.93897 105.695 7.95559 105.891 7.91194L112.689 6.40127C112.878 6.35923 113.076 6.37307 113.257 6.44113L118.785 8.51424C119.229 8.68067 119.729 8.51266 119.982 8.1119L123.981 1.77979C124.259 1.3393 124.829 1.18621 125.291 1.42795L133.095 5.51579" stroke="#EA3943" stroke-width="2"/>
</svg>
