<svg width="306" height="44" viewBox="0 0 306 44" fill="none" xmlns="http://www.w3.org/2000/svg">
<path d="M1.50806 42.3343L13.5219 29.9873C13.6889 29.8158 13.9119 29.7098 14.1504 29.6886L38.326 27.5467L55.1822 27.1153C55.2729 27.113 55.3635 27.123 55.4515 27.1451L65.3615 29.6354C65.5827 29.6911 65.8164 29.6693 66.0236 29.5738L74.8655 25.5003C75.0469 25.4168 75.2492 25.3894 75.4463 25.4219L88.2799 27.5335C88.3336 27.5423 88.3879 27.5467 88.4423 27.5467H98.5062C98.6632 27.5467 98.8181 27.5097 98.9582 27.4387L107.972 22.8705C108.113 22.7995 108.267 22.7625 108.425 22.7625H120.345C120.42 22.7625 120.495 22.7711 120.569 22.788L139.168 27.0723C139.281 27.0984 139.398 27.1045 139.514 27.0903L153.292 25.3976C153.429 25.3808 153.561 25.3358 153.68 25.2655L159.873 21.5974C160.027 21.506 160.203 21.4577 160.382 21.4577H170.011C170.315 21.4577 170.603 21.3188 170.793 21.0805L180.577 8.78716C180.767 8.54878 181.055 8.40989 181.36 8.40989H191.08C191.2 8.40989 191.32 8.38812 191.432 8.34562L201.373 4.5986C201.552 4.5313 201.746 4.51649 201.932 4.55591L224.051 9.22632C224.217 9.26136 224.389 9.25362 224.551 9.20383L232.566 6.74206C232.72 6.69484 232.883 6.6854 233.041 6.71455L242.1 8.38396C242.193 8.40116 242.288 8.40499 242.383 8.39532L259.097 6.68417C259.187 6.67489 259.279 6.67805 259.369 6.69357L273.921 9.20764C274.188 9.25373 274.462 9.18968 274.68 9.03014L285.293 1.28889C285.53 1.11586 285.831 1.05582 286.117 1.1247L305.492 5.80032" stroke="#16C784" stroke-width="2"/>
</svg>
