<svg width="306" height="44" viewBox="0 0 306 44" fill="none" xmlns="http://www.w3.org/2000/svg"><path d="m1.508 42.334 12.014-12.347c.167-.171.39-.277.628-.298l24.176-2.142 16.856-.432q.136-.003.27.03l9.91 2.49a1 1 0 0 0 .662-.061l8.841-4.074a1 1 0 0 1 .581-.078l12.834 2.111q.081.015.162.014h10.064a1 1 0 0 0 .452-.108l9.014-4.568a1 1 0 0 1 .453-.108h11.92q.113 0 .224.025l18.599 4.284q.17.04.346.018l13.778-1.692q.208-.026.388-.133l6.193-3.668a1 1 0 0 1 .509-.14h9.629a1 1 0 0 0 .782-.377l9.784-12.293c.19-.238.478-.377.783-.377h9.72c.12 0 .24-.022.352-.064l9.941-3.747a1 1 0 0 1 .559-.043l22.119 4.67a1 1 0 0 0 .5-.022l8.015-2.462a1 1 0 0 1 .475-.027l9.059 1.669a1 1 0 0 0 .283.011l16.714-1.71a1 1 0 0 1 .272.009l14.552 2.514a1 1 0 0 0 .759-.178l10.613-7.741a1 1 0 0 1 .824-.164L305.492 5.8" stroke="red" stroke-width="2"/></svg>