<svg width="24" height="20" viewBox="0 0 24 20" fill="none" xmlns="http://www.w3.org/2000/svg">
<g clip-path="url(#clip0_2004_6)">
<path d="M20.4844 0H23.9531L16.7344 7.19245C14.1202 9.79575 9.88172 9.79575 7.26563 7.19245L0.0440674 0H3.51563L9 5.46368C9.79907 6.25618 10.876 6.70044 11.9979 6.70044C13.1198 6.70044 14.1967 6.25618 14.9958 5.46368L20.4844 0Z" fill="white"/>
<path d="M3.47109 19.9998H0L7.26562 12.763C9.87984 10.1597 14.1183 10.1597 16.7344 12.763L24 19.9998H20.5312L15 14.4918C14.2009 13.6993 13.124 13.255 12.0021 13.255C10.8802 13.255 9.80329 13.6993 9.00422 14.4918L3.47109 19.9998Z" fill="white"/>
</g>
<defs>
<clipPath id="clip0_2004_6">
<rect width="24" height="20" fill="white"/>
</clipPath>
</defs>
</svg>
